<svg width="20" height="21" viewBox="0 0 20 21" fill="none" xmlns="http://www.w3.org/2000/svg">
<path d="M10.9323 0.316419C10.5306 -0.105407 9.85767 -0.105407 9.45593 0.316418L9.00963 0.785031C8.63468 1.17873 8.63468 1.79741 9.00963 2.19112L13.7157 7.13253C14.3338 7.78155 13.8738 8.85499 12.9775 8.85499L1.01941 8.85499C0.456406 8.85499 0 9.31139 0 9.8744L0 10.6159C0 11.1789 0.456407 11.6353 1.01941 11.6353L12.9785 11.6353C13.8748 11.6353 14.3349 12.7088 13.7167 13.3578L9.00976 18.2992C8.63474 18.6929 8.63471 19.3116 9.00969 19.7053L9.45593 20.1739C9.85767 20.5957 10.5306 20.5957 10.9323 20.1739L19.7187 10.9482C20.0936 10.5545 20.0936 9.93581 19.7187 9.5421L10.9323 0.316419Z" fill="#D6CFCF"/>
<path d="M10.9323 0.316419C10.5306 -0.105407 9.85767 -0.105407 9.45593 0.316418L9.00963 0.785031C8.63468 1.17873 8.63468 1.79741 9.00963 2.19112L13.7157 7.13253C14.3338 7.78155 13.8738 8.85499 12.9775 8.85499L1.01941 8.85499C0.456406 8.85499 0 9.31139 0 9.8744L0 10.6159C0 11.1789 0.456407 11.6353 1.01941 11.6353L12.9785 11.6353C13.8748 11.6353 14.3349 12.7088 13.7167 13.3578L9.00976 18.2992C8.63474 18.6929 8.63471 19.3116 9.00969 19.7053L9.45593 20.1739C9.85767 20.5957 10.5306 20.5957 10.9323 20.1739L19.7187 10.9482C20.0936 10.5545 20.0936 9.93581 19.7187 9.5421L10.9323 0.316419Z" stroke="white"/>
</svg>
