<svg width="20" height="23" viewBox="0 0 20 23" fill="none" xmlns="http://www.w3.org/2000/svg">
<g clip-path="url(#clip0_3_583)">
<path d="M3.70663 6.70833L7.52956 2.20225C7.69139 2.01249 7.90364 1.91666 8.11588 1.91666C8.61439 1.91666 8.94536 2.40062 8.94536 2.90279C8.94536 3.14237 8.87055 3.38579 8.70221 3.58416L6.05113 6.70833H3.70663ZM13.466 6.70833H15.8105L11.9876 2.20225C11.8258 2.01249 11.6135 1.91666 11.4013 1.91666C10.9028 1.91666 10.5718 2.40062 10.5718 2.90279C10.5718 3.14237 10.6466 3.38579 10.8149 3.58416L13.466 6.70833ZM0 8.625V10.5417H0.522897C0.957154 10.5417 1.35319 10.833 1.5443 11.293L4.87929 21.0833H14.6379L17.9737 11.2949C18.1632 10.834 18.5608 10.5417 18.9951 10.5417H19.5172V8.625H0Z" fill="white"/>
</g>
<defs>
<clipPath id="clip0_3_583">
<rect width="19.1613" height="22.5806" fill="white" transform="scale(1.01857)"/>
</clipPath>
</defs>
</svg>
