<svg width="18" height="20" viewBox="0 0 18 20" fill="none" xmlns="http://www.w3.org/2000/svg">
<g style="mix-blend-mode:plus-lighter" filter="url(#filter0_d_3_1118)">
<path d="M9 19.8247C8.14286 19.8247 3.27857 14.561 1.35 11.2998C1.07143 10.8993 0.814286 10.3844 0.578571 9.81223L0.514286 9.64059C0.471428 9.49755 0.407143 9.35452 0.364286 9.15427C0.321429 9.01123 0.278572 8.83959 0.235714 8.66795C0.0857144 7.98138 0 7.35202 0 6.75127C0 3.03235 2.27143 0 5.05714 0C6.6 0 8.05714 0.944034 9 2.54603C9.94286 0.944034 11.4 0 12.9429 0C15.7286 0 18 3.03235 18 6.75127C18 7.40923 17.8929 8.00998 17.7643 8.63934C17.7429 8.83959 17.6786 9.01123 17.6357 9.18287L17.6143 9.24009C17.5929 9.2973 17.5714 9.35452 17.55 9.41173C17.5286 9.46894 17.5071 9.55477 17.4643 9.64059V9.66919L17.4214 9.81223C17.1857 10.413 16.9286 10.8993 16.65 11.3284C14.7214 14.561 9.85714 19.8247 9 19.8247ZM1.56429 9.24009C1.75714 9.6978 1.95 10.0697 2.14286 10.3558L2.16429 10.413C4.13571 13.7028 8.14286 17.765 9 18.3371C9.85714 17.7364 13.8643 13.7028 15.8143 10.3844L15.8357 10.3272C16.05 10.0411 16.2429 9.66919 16.4143 9.21148V9.15427L16.5 8.98262C16.5214 8.92541 16.5429 8.8682 16.5643 8.78237C16.5857 8.72516 16.6071 8.63934 16.6286 8.55352C16.65 8.43909 16.6929 8.35327 16.6929 8.26745V8.23884C16.8 7.6953 16.8857 7.20898 16.8857 6.69406C16.8857 3.74753 15.1071 1.37314 12.9 1.37314C11.4429 1.37314 10.1357 2.403 9.42857 4.11942L9 5.32092L8.52857 4.20524C7.82143 2.48882 6.51429 1.45896 5.05714 1.45896C2.85 1.43035 1.07143 3.80474 1.07143 6.75127C1.07143 7.20898 1.13571 7.72391 1.26429 8.23884L1.28571 8.32466C1.30714 8.41048 1.32857 8.52491 1.37143 8.63934L1.39286 8.66795C1.41429 8.78237 1.45714 8.8968 1.52143 9.01123L1.60714 9.18287V9.24009H1.56429Z" fill="white"/>
</g>
<defs>
<filter id="filter0_d_3_1118" x="-4" y="0" width="26" height="27.8247" filterUnits="userSpaceOnUse" color-interpolation-filters="sRGB">
<feFlood flood-opacity="0" result="BackgroundImageFix"/>
<feColorMatrix in="SourceAlpha" type="matrix" values="0 0 0 0 0 0 0 0 0 0 0 0 0 0 0 0 0 0 127 0" result="hardAlpha"/>
<feOffset dy="4"/>
<feGaussianBlur stdDeviation="2"/>
<feComposite in2="hardAlpha" operator="out"/>
<feColorMatrix type="matrix" values="0 0 0 0 0 0 0 0 0 0 0 0 0 0 0 0 0 0 0.25 0"/>
<feBlend mode="normal" in2="BackgroundImageFix" result="effect1_dropShadow_3_1118"/>
<feBlend mode="normal" in="SourceGraphic" in2="effect1_dropShadow_3_1118" result="shape"/>
</filter>
</defs>
</svg>
