<svg width="25" height="27" viewBox="0 0 25 27" fill="none" xmlns="http://www.w3.org/2000/svg">
<g clip-path="url(#clip0_3_290)">
<path d="M22.3958 4.49997H2.60415C1.16875 4.49997 0 5.76222 0 7.31251V19.6875C0 21.2378 1.16875 22.5 2.60415 22.5H22.3958C23.8312 22.5 24.9999 21.2378 24.9999 19.6875V7.31251C25 5.76222 23.8312 4.49997 22.3958 4.49997ZM23.9583 19.6875C23.9583 20.6179 23.2573 21.375 22.3958 21.375H2.60415C1.74268 21.375 1.04165 20.6179 1.04165 19.6875V7.31251C1.04165 6.38211 1.74268 5.625 2.60415 5.625H22.3958C23.2573 5.625 23.9583 6.38211 23.9583 7.31251V19.6875H23.9583Z" fill="white"/>
<path d="M24.4792 7.87497H0.52085C0.23335 7.87497 0 8.12699 0 8.43749V11.8125C0 12.123 0.23335 12.375 0.52085 12.375H24.4792C24.7667 12.375 25 12.123 25 11.8125V8.43749C25 8.12699 24.7667 7.87497 24.4792 7.87497ZM23.9583 11.25H1.04165V8.99995H23.9583V11.25H23.9583Z" fill="white"/>
<path d="M9.89585 15.75H3.64585C3.35835 15.75 3.125 16.002 3.125 16.3125C3.125 16.6231 3.35835 16.875 3.64585 16.875H9.89585C10.1834 16.875 10.4167 16.623 10.4167 16.3125C10.4167 16.002 10.1834 15.75 9.89585 15.75Z" fill="white"/>
<path d="M9.89585 18H3.64585C3.35835 18 3.125 18.252 3.125 18.5625C3.125 18.873 3.35835 19.125 3.64585 19.125H9.89585C10.1834 19.125 10.4167 18.873 10.4167 18.5625C10.4167 18.252 10.1834 18 9.89585 18Z" fill="white"/>
<path d="M20.3126 14.625H19.271C18.4095 14.625 17.7085 15.3821 17.7085 16.3125V17.4374C17.7085 18.3678 18.4095 19.1249 19.271 19.1249H20.3126C21.1741 19.1249 21.8752 18.3678 21.8752 17.4374V16.3125C21.8752 15.3821 21.1741 14.625 20.3126 14.625ZM20.8335 17.4375C20.8335 17.748 20.6001 18 20.3126 18H19.271C18.9835 18 18.7501 17.748 18.7501 17.4375V16.3125C18.7501 16.002 18.9835 15.75 19.271 15.75H20.3126C20.6001 15.75 20.8335 16.002 20.8335 16.3125V17.4375Z" fill="white"/>
</g>
<defs>
<clipPath id="clip0_3_290">
<rect width="25" height="27" fill="white"/>
</clipPath>
</defs>
</svg>
