<svg width="24" height="19" viewBox="0 0 24 19" fill="none" xmlns="http://www.w3.org/2000/svg">
<path d="M20.1305 8.52341C19.7961 8.52341 19.525 8.77136 19.525 9.07721V17.8923H14.6808V13.0805C14.6808 11.5535 13.3224 10.3112 11.6529 10.3112C9.98339 10.3112 8.62503 11.5536 8.62503 13.0805V17.8923H3.78081V9.07725C3.78081 8.7714 3.50966 8.52345 3.17528 8.52345C2.8409 8.52345 2.56975 8.7714 2.56975 9.07725V18.4462C2.56975 18.752 2.8409 19 3.17528 19H9.23056C9.54901 19 9.8096 18.775 9.83372 18.4893C9.83518 18.4764 9.83609 18.4622 9.83609 18.4462V13.0805C9.83609 12.1643 10.6511 11.4189 11.6529 11.4189C12.6547 11.4189 13.4697 12.1643 13.4697 13.0805V18.4462C13.4697 18.4621 13.4707 18.476 13.4721 18.4888C13.496 18.7747 13.7566 19 14.0753 19H20.1306C20.465 19 20.7361 18.752 20.7361 18.4462V9.07725C20.736 8.77136 20.4649 8.52341 20.1305 8.52341Z" fill="white"/>
<path d="M23.0576 7.50446L12.0105 0.106968C11.7975 -0.0356559 11.5081 -0.0356559 11.2951 0.106968L0.247875 7.50446C-0.0219591 7.68518 -0.0805869 8.0317 0.117009 8.27848C0.314605 8.52527 0.693546 8.5788 0.963334 8.39817L11.6528 1.24017L22.3422 8.39813C22.45 8.47036 22.5752 8.50512 22.6994 8.50512C22.8859 8.50512 23.0698 8.42665 23.1885 8.27844C23.3861 8.0317 23.3275 7.68518 23.0576 7.50446Z" fill="white"/>
</svg>
