<svg width="17" height="18" viewBox="0 0 17 18" fill="none" xmlns="http://www.w3.org/2000/svg">
<g clip-path="url(#clip0_3_490)">
<path d="M16.8519 17.082L12.7206 12.7078C13.8288 11.3588 14.4998 9.59867 14.4998 7.67494C14.4998 3.44035 11.2468 0 7.25124 0C3.25191 0 0.00268555 3.44435 0.00268555 7.67494C0.00268555 11.9055 3.25568 15.3499 7.25124 15.3499C9.0681 15.3499 10.7304 14.6395 12.0045 13.4661L16.1357 17.8404C16.2337 17.9441 16.3657 18 16.4938 18C16.622 18 16.7539 17.9481 16.8519 17.8404C17.0479 17.6328 17.0479 17.2896 16.8519 17.082ZM1.01665 7.67494C1.01665 4.03503 3.81355 1.07761 7.24747 1.07761C10.6852 1.07761 13.4783 4.03902 13.4783 7.67494C13.4783 11.3109 10.6852 14.2763 7.24747 14.2763C3.81355 14.2763 1.01665 11.3149 1.01665 7.67494Z" fill="#5E5959"/>
</g>
<defs>
<clipPath id="clip0_3_490">
<rect width="17" height="18" fill="white"/>
</clipPath>
</defs>
</svg>
