<svg width="20" height="23" viewBox="0 0 20 23" fill="none" xmlns="http://www.w3.org/2000/svg">
<g clip-path="url(#clip0_186_23)">
<path d="M3.70662 6.70831L7.52954 2.20224C7.69137 2.01249 7.90361 1.91666 8.11586 1.91666C8.61436 1.91666 8.94534 2.40061 8.94534 2.90278C8.94534 3.14236 8.87052 3.38578 8.70219 3.58415L6.05112 6.70831H3.70662ZM13.466 6.70831H15.8105L11.9876 2.20224C11.8257 2.01249 11.6135 1.91666 11.4012 1.91666C10.9027 1.91666 10.5718 2.40061 10.5718 2.90278C10.5718 3.14236 10.6466 3.38578 10.8149 3.58415L13.466 6.70831ZM0 8.62498V10.5416H0.522896C0.957151 10.5416 1.35319 10.833 1.54429 11.293L4.87928 21.0833H14.6378L17.9736 11.2949C18.1631 10.8339 18.5608 10.5416 18.995 10.5416H19.5171V8.62498H0Z" fill="white"/>
</g>
<defs>
<clipPath id="clip0_186_23">
<rect width="19.1613" height="22.5806" fill="white" transform="scale(1.01857)"/>
</clipPath>
</defs>
</svg>
