<svg width="24" height="20" viewBox="0 0 24 20" fill="none" xmlns="http://www.w3.org/2000/svg">
<path d="M20.0467 8.97204C19.7137 8.97204 19.4437 9.23303 19.4437 9.55498V18.834H14.6197V13.7689C14.6197 12.1616 13.267 10.854 11.6044 10.854C9.94181 10.854 8.5891 12.1617 8.5891 13.7689V18.834H3.76506V9.55503C3.76506 9.23308 3.49504 8.97208 3.16205 8.97208C2.82907 8.97208 2.55904 9.23308 2.55904 9.55503V19.417C2.55904 19.739 2.82907 20 3.16205 20H9.19212C9.50924 20 9.76874 19.7631 9.79277 19.4624C9.79422 19.4488 9.79513 19.4339 9.79513 19.417V13.769C9.79513 12.8045 10.6067 12.0199 11.6044 12.0199C12.602 12.0199 13.4136 12.8046 13.4136 13.769V19.417C13.4136 19.4338 13.4146 19.4485 13.416 19.4619C13.4398 19.7628 13.6994 20 14.0167 20H20.0467C20.3797 20 20.6497 19.739 20.6497 19.417V9.55503C20.6497 9.23303 20.3797 8.97204 20.0467 8.97204Z" fill="white"/>
<path d="M22.9616 7.89942L11.9605 0.112598C11.7483 -0.0375325 11.4601 -0.0375325 11.2481 0.112598L0.246842 7.89942C-0.0218676 8.08965 -0.0802513 8.45441 0.116522 8.71418C0.313294 8.97395 0.690658 9.03031 0.959322 8.84017L11.6042 1.30544L22.2491 8.84013C22.3565 8.91615 22.4812 8.95274 22.6049 8.95274C22.7905 8.95274 22.9738 8.87014 23.0919 8.71414C23.2887 8.45441 23.2303 8.08965 22.9616 7.89942Z" fill="white"/>
</svg>
