<svg width="20" height="23" viewBox="0 0 20 23" fill="none" xmlns="http://www.w3.org/2000/svg">
<g clip-path="url(#clip0_186_17)">
<path d="M10.2349 -0.656997C8.43206 -0.656997 6.8431 0.534729 6.33381 2.2663C5.79397 2.02184 5.22357 1.88943 4.6328 1.88943C3.55223 1.88943 2.51593 2.31868 1.75185 3.08275C0.987775 3.84683 0.558522 4.88314 0.558522 5.9637C0.560936 6.86599 0.86205 7.74208 1.41485 8.4552C1.96766 9.16831 2.74103 9.67831 3.61423 9.90557V17.168H16.8556V9.90557C18.6483 9.43703 19.9113 7.8175 19.9113 5.9637C19.9113 4.88314 19.4821 3.84683 18.718 3.08275C17.9539 2.31868 16.9176 1.88943 15.8371 1.88943C15.2463 1.88943 14.6759 2.02184 14.1361 2.2663C13.6268 0.534729 12.0378 -0.656997 10.2349 -0.656997ZM9.72565 8.51013H10.7442V15.6401H9.72565V8.51013ZM6.66994 10.5473H7.68851V15.6401H6.66994V10.5473ZM12.7814 10.5473H13.7999V15.6401H12.7814V10.5473ZM3.61423 18.1865V19.2051C3.61423 19.4752 3.72154 19.7343 3.91256 19.9253C4.10358 20.1164 4.36266 20.2237 4.6328 20.2237H15.8371C16.1072 20.2237 16.3663 20.1164 16.5573 19.9253C16.7483 19.7343 16.8556 19.4752 16.8556 19.2051V18.1865H3.61423Z" fill="white"/>
</g>
<defs>
<clipPath id="clip0_186_17">
<rect width="19.1613" height="22.5806" fill="white" transform="scale(1.01857)"/>
</clipPath>
</defs>
</svg>
